<svg width="882" height="200" viewBox="0 0 882 200" fill="none" xmlns="http://www.w3.org/2000/svg">
<g clip-path="url(#clip0_11_176)">
<path d="M72.6892 36.4528H70.3108L50.7635 75.473H92.2365L72.6892 36.4528ZM104.649 75.473H143L123.527 36.4528H85.1757L104.649 75.473ZM141.216 86.6216H77.0743V163.547L141.216 86.6216ZM65.9257 163.547V86.6216H1.78378L65.9257 163.547ZM38.3513 75.473L57.8243 36.4528H19.473L0 75.473H38.3513Z" fill="#7B6C5B"/>
<path d="M178.2 177V39.3H224.44C232.713 39.3 239.513 40.8867 244.84 44.06C250.167 47.12 254.133 51.6533 256.74 57.66C259.347 63.5533 260.65 70.75 260.65 79.25C260.65 89.9033 258.893 98.0633 255.38 103.73C251.867 109.283 247.107 113.137 241.1 115.29C235.093 117.443 228.35 118.52 220.87 118.52H208.63V177H178.2ZM208.63 97.27H218.83C222.57 97.27 225.403 96.59 227.33 95.23C229.257 93.87 230.503 91.83 231.07 89.11C231.75 86.39 232.09 82.9333 232.09 78.74C232.09 75.2267 231.807 72.1667 231.24 69.56C230.787 66.84 229.597 64.6867 227.67 63.1C225.743 61.5133 222.74 60.72 218.66 60.72H208.63V97.27ZM275.319 177V39.3H313.229C322.522 39.3 330.569 40.32 337.369 42.36C344.169 44.4 349.439 48.0833 353.179 53.41C357.032 58.6233 358.959 66.0467 358.959 75.68C358.959 81.3467 358.506 86.39 357.599 90.81C356.692 95.23 354.992 99.0833 352.499 102.37C350.119 105.543 346.662 108.207 342.129 110.36L360.999 177H329.549L314.419 115.29H305.749V177H275.319ZM305.749 97.78H314.249C318.556 97.78 321.899 97.0433 324.279 95.57C326.659 93.9833 328.302 91.7733 329.209 88.94C330.229 85.9933 330.739 82.48 330.739 78.4C330.739 72.5067 329.662 67.9167 327.509 64.63C325.356 61.3433 321.389 59.7 315.609 59.7H305.749V97.78ZM377.423 177V39.3H407.853V177H377.423ZM427.876 177L430.256 39.3H462.896L478.026 119.37L494.346 39.3H525.796L528.176 177H506.586L504.036 85.37L488.056 177H468.846L451.846 84.69L449.806 177H427.876ZM548.253 177V39.3H578.683V177H548.253ZM611.626 177V61.91H590.886V39.3H662.796V61.91H642.226V177H611.626ZM675.089 177V39.3H705.519V177H675.089ZM744.412 177L719.592 39.3H745.602L760.392 132.8L774.162 39.3H801.702L776.542 177H744.412ZM815.534 177V39.3H877.414V60.04H845.964V94.21H869.934V115.29H845.964V156.43H877.754V177H815.534Z" fill="#7B6C5B"/>
</g>
<defs>
<clipPath id="clip0_11_176">
<rect width="882" height="200" fill="white"/>
</clipPath>
</defs>
</svg>
