<svg width="1130" height="241" viewBox="0 0 1130 241" fill="none" xmlns="http://www.w3.org/2000/svg">
<path fill-rule="evenodd" clip-rule="evenodd" d="M180.464 139.686L182.151 124.066C183.04 115.724 183.636 110.224 183.168 106.75C181.221 106.727 179.301 106.291 177.536 105.469C175.77 104.647 174.2 103.459 172.929 101.983C169.932 103.826 166.027 107.722 160.151 113.579C155.613 118.098 153.349 120.353 150.819 120.702C149.417 120.896 147.989 120.696 146.694 120.124C144.366 119.097 142.808 116.311 139.7 110.728L123.292 81.3125C121.376 77.875 119.772 74.9875 118.323 72.6775C115.745 73.9898 112.893 74.6716 110 74.6666C107.003 74.6666 104.179 73.9516 101.677 72.6775C100.228 74.9966 98.6242 77.875 96.6992 81.3125L80.3001 110.728C77.1834 116.311 75.6251 119.097 73.2967 120.124C72.0019 120.696 70.5737 120.896 69.1717 120.702C66.6509 120.353 64.3867 118.098 59.8492 113.579C53.9734 107.722 50.0684 103.826 47.0801 101.983C45.8083 103.46 44.2365 104.649 42.4694 105.471C40.7023 106.293 38.7805 106.729 36.8317 106.75C36.3642 110.215 36.96 115.724 37.8492 124.066L39.5359 139.686L40.3517 147.477C42.6617 169.798 44.5684 188.269 52.36 195.236C61.0317 203 74.0301 203 100.027 203H119.973C145.97 203 158.968 203 167.64 195.236C175.432 188.269 177.338 169.798 179.648 147.477C179.914 144.929 180.171 142.326 180.464 139.686Z" fill="#7B6C5B"/>
<path fill-rule="evenodd" clip-rule="evenodd" d="M180.464 139.686L182.151 124.066C183.04 115.724 183.636 110.224 183.168 106.75C181.221 106.727 179.301 106.291 177.536 105.469C175.77 104.647 174.2 103.459 172.929 101.983C169.932 103.826 166.027 107.722 160.151 113.579C155.613 118.098 153.349 120.353 150.819 120.702C149.417 120.896 147.989 120.696 146.694 120.124C144.366 119.097 142.808 116.311 139.7 110.728L123.292 81.3125C121.376 77.875 119.772 74.9875 118.323 72.6775C115.745 73.9898 112.893 74.6716 110 74.6666C107.003 74.6666 104.179 73.9516 101.677 72.6775C100.228 74.9966 98.6242 77.875 96.6992 81.3125L80.3001 110.728C77.1834 116.311 75.6251 119.097 73.2967 120.124C72.0019 120.696 70.5737 120.896 69.1717 120.702C66.6509 120.353 64.3867 118.098 59.8492 113.579C53.9734 107.722 50.0684 103.826 47.0801 101.983C45.8083 103.46 44.2365 104.649 42.4694 105.471C40.7023 106.293 38.7805 106.729 36.8317 106.75C36.3642 110.215 36.96 115.724 37.8492 124.066L39.5359 139.686L40.3517 147.477C42.6617 169.798 44.5684 188.269 52.36 195.236C61.0317 203 74.0301 203 100.027 203H119.973C145.97 203 158.968 203 167.64 195.236C175.432 188.269 177.338 169.798 179.648 147.477C179.914 144.929 180.171 142.326 180.464 139.686Z" fill="black" fill-opacity="0.2"/>
<path d="M183.333 106.75C186.973 106.728 190.455 105.264 193.017 102.679C195.579 100.094 197.012 96.5985 197.001 92.959C196.99 89.3194 195.536 85.8327 192.959 83.2629C190.381 80.6932 186.89 79.2502 183.251 79.2502C179.611 79.2502 176.12 80.6932 173.543 83.2629C170.965 85.8327 169.512 89.3194 169.501 92.959C169.49 96.5985 170.922 100.094 173.484 102.679C176.046 105.264 179.529 106.728 183.168 106.75H183.333ZM110 38C105.138 38 100.474 39.9315 97.0363 43.3697C93.5982 46.8079 91.6666 51.471 91.6666 56.3333C91.6666 61.1956 93.5982 65.8588 97.0363 69.2969C100.474 72.7351 105.138 74.6667 110 74.6667C114.862 74.6667 119.525 72.7351 122.964 69.2969C126.402 65.8588 128.333 61.1956 128.333 56.3333C128.333 51.471 126.402 46.8079 122.964 43.3697C119.525 39.9315 114.862 38 110 38ZM22.9166 93C22.9166 96.6467 24.3653 100.144 26.9439 102.723C29.5225 105.301 33.0199 106.75 36.6666 106.75H36.8316C40.4519 106.714 43.9112 105.248 46.4558 102.673C49.0004 100.097 50.4241 96.6205 50.4166 93C50.4166 89.3533 48.968 85.8559 46.3893 83.2773C43.8107 80.6986 40.3133 79.25 36.6666 79.25C33.0199 79.25 29.5225 80.6986 26.9439 83.2773C24.3653 85.8559 22.9166 89.3533 22.9166 93ZM44.4491 177.792C43.5019 173.243 42.7496 168.655 42.1941 164.042H177.806C177.164 169.037 176.449 173.667 175.551 177.792H44.4491Z" fill="#7B6C5B"/>
<path d="M183.333 106.75C186.973 106.728 190.455 105.264 193.017 102.679C195.579 100.094 197.012 96.5985 197.001 92.959C196.99 89.3194 195.536 85.8327 192.959 83.2629C190.381 80.6932 186.89 79.2502 183.251 79.2502C179.611 79.2502 176.12 80.6932 173.543 83.2629C170.965 85.8327 169.512 89.3194 169.501 92.959C169.49 96.5985 170.922 100.094 173.484 102.679C176.046 105.264 179.529 106.728 183.168 106.75H183.333ZM110 38C105.138 38 100.474 39.9315 97.0363 43.3697C93.5982 46.8079 91.6666 51.471 91.6666 56.3333C91.6666 61.1956 93.5982 65.8588 97.0363 69.2969C100.474 72.7351 105.138 74.6667 110 74.6667C114.862 74.6667 119.525 72.7351 122.964 69.2969C126.402 65.8588 128.333 61.1956 128.333 56.3333C128.333 51.471 126.402 46.8079 122.964 43.3697C119.525 39.9315 114.862 38 110 38ZM22.9166 93C22.9166 96.6467 24.3653 100.144 26.9439 102.723C29.5225 105.301 33.0199 106.75 36.6666 106.75H36.8316C40.4519 106.714 43.9112 105.248 46.4558 102.673C49.0004 100.097 50.4241 96.6205 50.4166 93C50.4166 89.3533 48.968 85.8559 46.3893 83.2773C43.8107 80.6986 40.3133 79.25 36.6666 79.25C33.0199 79.25 29.5225 80.6986 26.9439 83.2773C24.3653 85.8559 22.9166 89.3533 22.9166 93ZM44.4491 177.792C43.5019 173.243 42.7496 168.655 42.1941 164.042H177.806C177.164 169.037 176.449 173.667 175.551 177.792H44.4491Z" fill="black" fill-opacity="0.2"/>
<path d="M275.958 76.6H295.398C304.686 76.6 312.192 77.95 317.916 80.65C323.748 83.35 328.068 87.076 330.876 91.828C333.792 96.472 335.358 101.764 335.574 107.704C335.79 113.212 334.872 118.234 332.82 122.77C330.768 127.306 327.96 131.086 324.396 134.11C320.832 137.134 316.728 139.348 312.084 140.752C307.548 142.048 302.796 142.372 297.828 141.724C292.968 140.968 288.216 139.078 283.572 136.054V134.434C283.572 134.434 284.22 134.434 285.516 134.434C286.92 134.434 288.648 134.218 290.7 133.786C292.86 133.354 295.074 132.544 297.342 131.356C299.718 130.168 301.932 128.332 303.984 125.848C306.036 123.364 307.602 120.07 308.682 115.966C309.114 114.562 309.384 112.996 309.492 111.268C309.708 109.432 309.762 107.758 309.654 106.246C309.546 99.334 307.656 93.826 303.984 89.722C300.42 85.51 295.344 83.404 288.756 83.404H277.578C277.578 83.404 277.416 82.864 277.092 81.784C276.876 80.596 276.606 79.462 276.282 78.382C276.066 77.194 275.958 76.6 275.958 76.6ZM278.064 76.6V190H253.764V76.6H278.064ZM254.25 178.174V190H241.29V188.38C241.398 188.38 241.722 188.38 242.262 188.38C242.91 188.38 243.288 188.38 243.396 188.38C246.204 188.38 248.58 187.408 250.524 185.464C252.576 183.412 253.656 180.982 253.764 178.174H254.25ZM254.25 88.426H253.764C253.764 85.618 252.738 83.242 250.686 81.298C248.634 79.246 246.204 78.22 243.396 78.22C243.288 78.22 242.964 78.22 242.424 78.22C241.884 78.22 241.56 78.22 241.452 78.22L241.29 76.6H254.25V88.426ZM277.578 178.174H278.064C278.172 180.982 279.198 183.412 281.142 185.464C283.194 187.408 285.624 188.38 288.432 188.38C288.54 188.38 288.864 188.38 289.404 188.38C290.052 188.38 290.43 188.38 290.538 188.38V190H277.578V178.174ZM381.954 76.6H402.852C407.712 76.6 412.464 77.14 417.108 78.22C421.752 79.3 425.856 81.028 429.42 83.404C433.092 85.78 436.008 88.912 438.168 92.8C440.328 96.688 441.408 101.494 441.408 107.218C441.408 111.754 440.436 116.29 438.492 120.826C436.656 125.254 433.794 129.088 429.906 132.328C426.018 135.46 420.996 137.35 414.84 137.998C418.296 139.078 421.428 141.022 424.236 143.83C427.152 146.638 429.528 149.446 431.364 152.254C431.472 152.47 432.066 153.442 433.146 155.17C434.334 156.898 435.738 159.058 437.358 161.65C439.086 164.134 440.868 166.672 442.704 169.264C444.54 171.856 446.214 174.124 447.726 176.068C450.102 178.984 452.262 181.36 454.206 183.196C456.15 184.924 458.202 186.22 460.362 187.084C462.522 187.84 465.006 188.272 467.814 188.38V190H451.938C446.106 190 440.814 189.514 436.062 188.542C431.31 187.462 427.098 185.68 423.426 183.196C419.754 180.712 416.568 177.364 413.868 173.152C413.004 171.856 412.032 170.236 410.952 168.292C409.98 166.24 408.954 164.08 407.874 161.812C406.794 159.544 405.714 157.384 404.634 155.332C403.662 153.172 402.798 151.228 402.042 149.5C401.286 147.772 400.746 146.422 400.422 145.45C399.018 141.994 397.344 139.402 395.4 137.674C393.564 135.946 391.566 134.92 389.406 134.596V132.976C389.73 132.976 390.378 132.976 391.35 132.976C392.322 132.976 393.348 132.976 394.428 132.976C397.344 132.976 400.152 132.382 402.852 131.194C405.66 130.006 408.144 128.062 410.304 125.362C412.464 122.662 413.976 118.936 414.84 114.184C415.056 113.212 415.218 112.078 415.326 110.782C415.542 109.486 415.596 108.028 415.488 106.408C415.164 98.632 413.22 92.962 409.656 89.398C406.092 85.726 401.664 83.836 396.372 83.728C394.86 83.62 393.186 83.62 391.35 83.728C389.622 83.728 388.002 83.728 386.49 83.728C385.086 83.728 384.114 83.728 383.574 83.728C383.574 83.62 383.412 83.026 383.088 81.946C382.872 80.758 382.602 79.57 382.278 78.382C382.062 77.194 381.954 76.6 381.954 76.6ZM384.06 76.6V190H359.76V76.6H384.06ZM360.246 178.174V190H347.286V188.38C347.394 188.38 347.718 188.38 348.258 188.38C348.906 188.38 349.284 188.38 349.392 188.38C352.2 188.38 354.576 187.408 356.52 185.464C358.572 183.412 359.652 180.982 359.76 178.174H360.246ZM360.246 88.426H359.76C359.652 85.618 358.572 83.242 356.52 81.298C354.576 79.246 352.2 78.22 349.392 78.22C349.284 78.22 348.906 78.22 348.258 78.22C347.718 78.22 347.394 78.22 347.286 78.22V76.6H360.246V88.426ZM383.574 178.174H384.06C384.06 180.982 385.086 183.412 387.138 185.464C389.19 187.408 391.62 188.38 394.428 188.38C394.644 188.38 395.022 188.38 395.562 188.38C396.102 188.38 396.372 188.38 396.372 188.38V190H383.574V178.174ZM502.701 76.6V190H478.401V76.6H502.701ZM478.887 178.174V190H465.927V188.38C465.927 188.38 466.251 188.38 466.899 188.38C467.655 188.38 468.033 188.38 468.033 188.38C470.841 188.38 473.217 187.408 475.161 185.464C477.213 183.412 478.293 180.982 478.401 178.174H478.887ZM478.887 88.426H478.401C478.293 85.618 477.213 83.242 475.161 81.298C473.217 79.246 470.841 78.22 468.033 78.22C468.033 78.22 467.655 78.22 466.899 78.22C466.251 78.22 465.927 78.22 465.927 78.22V76.6H478.887V88.426ZM502.215 178.174H502.701C502.809 180.982 503.835 183.412 505.779 185.464C507.831 187.408 510.261 188.38 513.069 188.38C513.069 188.38 513.393 188.38 514.041 188.38C514.689 188.38 515.067 188.38 515.175 188.38V190H502.215V178.174ZM502.215 88.426V76.6H515.175V78.22C515.067 78.22 514.689 78.22 514.041 78.22C513.393 78.22 513.069 78.22 513.069 78.22C510.261 78.22 507.831 79.246 505.779 81.298C503.835 83.242 502.809 85.618 502.701 88.426H502.215ZM648.131 74.332L649.427 91.99L601.313 175.42C601.313 175.42 600.773 176.392 599.693 178.336C598.613 180.172 597.533 182.44 596.453 185.14C595.481 187.84 594.995 190.54 594.995 193.24H593.375L587.057 179.146L648.131 74.332ZM538.295 178.174V190H520.313V188.38C520.421 188.38 520.907 188.38 521.771 188.38C522.527 188.38 522.905 188.38 522.905 188.38C525.821 188.38 528.413 187.516 530.681 185.788C532.949 183.952 534.299 181.414 534.731 178.174H538.295ZM545.423 180.766C545.423 180.874 545.423 180.982 545.423 181.09C545.423 181.198 545.423 181.36 545.423 181.576C545.423 183.304 546.017 184.924 547.205 186.436C548.501 187.84 550.013 188.542 551.741 188.542H554.171V190H544.289V180.766H545.423ZM548.177 74.332H549.635L555.305 90.532L544.451 190H533.111L548.177 74.332ZM549.635 74.332L602.609 161.326L593.375 193.24L545.423 112.726L549.635 74.332ZM649.589 74.332L664.979 190H638.897L630.797 115.48L648.131 74.332H649.589ZM659.957 178.174H663.359C663.899 181.414 665.303 183.952 667.571 185.788C669.839 187.516 672.377 188.38 675.185 188.38C675.185 188.38 675.617 188.38 676.481 188.38C677.345 188.38 677.777 188.38 677.777 188.38V190H659.957V178.174ZM637.925 180.766H639.059V190H629.177V188.542H631.607C633.443 188.542 634.955 187.84 636.143 186.436C637.331 184.924 637.925 183.304 637.925 181.576C637.925 181.36 637.925 181.198 637.925 181.09C637.925 180.982 637.925 180.874 637.925 180.766ZM719.756 76.6V190H695.456V76.6H719.756ZM695.942 178.174V190H682.982V188.38C682.982 188.38 683.306 188.38 683.954 188.38C684.71 188.38 685.088 188.38 685.088 188.38C687.896 188.38 690.272 187.408 692.216 185.464C694.268 183.412 695.348 180.982 695.456 178.174H695.942ZM695.942 88.426H695.456C695.348 85.618 694.268 83.242 692.216 81.298C690.272 79.246 687.896 78.22 685.088 78.22C685.088 78.22 684.71 78.22 683.954 78.22C683.306 78.22 682.982 78.22 682.982 78.22V76.6H695.942V88.426ZM719.27 178.174H719.756C719.864 180.982 720.89 183.412 722.834 185.464C724.886 187.408 727.316 188.38 730.124 188.38C730.124 188.38 730.448 188.38 731.096 188.38C731.744 188.38 732.122 188.38 732.23 188.38V190H719.27V178.174ZM719.27 88.426V76.6H732.23V78.22C732.122 78.22 731.744 78.22 731.096 78.22C730.448 78.22 730.124 78.22 730.124 78.22C727.316 78.22 724.886 79.246 722.834 81.298C720.89 83.242 719.864 85.618 719.756 88.426H719.27ZM805.084 77.086V190H780.784V77.086H805.084ZM844.774 76.438V83.242H741.094V76.438H844.774ZM844.774 82.756V101.872L843.154 101.71V99.928C843.154 94.852 841.642 90.856 838.618 87.94C835.702 84.916 831.706 83.35 826.63 83.242V82.756H844.774ZM844.774 73.522V78.22L825.01 76.438C827.386 76.438 829.87 76.276 832.462 75.952C835.162 75.628 837.646 75.25 839.914 74.818C842.182 74.386 843.802 73.954 844.774 73.522ZM781.27 178.174V190H768.31V188.38C768.31 188.38 768.634 188.38 769.282 188.38C770.038 188.38 770.416 188.38 770.416 188.38C773.224 188.38 775.6 187.408 777.544 185.464C779.596 183.412 780.676 180.982 780.784 178.174H781.27ZM804.598 178.174H805.084C805.192 180.982 806.218 183.412 808.162 185.464C810.214 187.408 812.644 188.38 815.452 188.38C815.452 188.38 815.776 188.38 816.424 188.38C817.18 188.38 817.558 188.38 817.558 188.38V190H804.598V178.174ZM759.076 82.756V83.242C754.108 83.35 750.112 84.916 747.088 87.94C744.172 90.856 742.714 94.852 742.714 99.928V101.71L741.094 101.872V82.756H759.076ZM741.094 73.522C742.174 73.954 743.794 74.386 745.954 74.818C748.222 75.25 750.706 75.628 753.406 75.952C756.106 76.276 758.59 76.438 760.858 76.438L741.094 78.22V73.522ZM890.457 76.6V190H866.157V76.6H890.457ZM866.643 178.174V190H853.683V188.38C853.683 188.38 854.007 188.38 854.655 188.38C855.411 188.38 855.789 188.38 855.789 188.38C858.597 188.38 860.973 187.408 862.917 185.464C864.969 183.412 866.049 180.982 866.157 178.174H866.643ZM866.643 88.426H866.157C866.049 85.618 864.969 83.242 862.917 81.298C860.973 79.246 858.597 78.22 855.789 78.22C855.789 78.22 855.411 78.22 854.655 78.22C854.007 78.22 853.683 78.22 853.683 78.22V76.6H866.643V88.426ZM889.971 178.174H890.457C890.565 180.982 891.591 183.412 893.535 185.464C895.587 187.408 898.017 188.38 900.825 188.38C900.825 188.38 901.149 188.38 901.797 188.38C902.445 188.38 902.823 188.38 902.931 188.38V190H889.971V178.174ZM889.971 88.426V76.6H902.931V78.22C902.823 78.22 902.445 78.22 901.797 78.22C901.149 78.22 900.825 78.22 900.825 78.22C898.017 78.22 895.587 79.246 893.535 81.298C891.591 83.242 890.565 85.618 890.457 88.426H889.971ZM969.143 193.24L915.521 77.572H944.519L979.187 161.974L969.143 193.24ZM969.143 193.24L968.657 173.476L1009.81 77.086H1021.47L978.539 172.018C978.323 172.666 977.783 173.908 976.919 175.744C976.163 177.472 975.299 179.47 974.327 181.738C973.355 184.006 972.491 186.22 971.735 188.38C971.087 190.432 970.709 192.052 970.601 193.24H969.143ZM1004.95 88.426C1006.35 85.186 1006.19 82.702 1004.46 80.974C1002.73 79.138 1000.84 78.22 998.789 78.22H997.331V76.6H1032V78.22C1032 78.22 1031.73 78.22 1031.19 78.22C1030.76 78.22 1030.54 78.22 1030.54 78.22C1028.17 78.22 1025.63 79.03 1022.93 80.65C1020.34 82.162 1018.18 84.754 1016.45 88.426H1004.95ZM949.055 88.426H920.543C918.815 84.754 916.601 82.162 913.901 80.65C911.309 79.03 908.771 78.22 906.287 78.22C906.287 78.22 906.071 78.22 905.639 78.22C905.207 78.22 904.991 78.22 904.991 78.22V76.6H956.507V78.22H955.049C952.997 78.22 951.161 79.138 949.541 80.974C948.029 82.702 947.867 85.186 949.055 88.426ZM1070.97 76.6V190H1046.67V76.6H1070.97ZM1113.73 183.034L1117.62 190H1070.48V183.034H1113.73ZM1107.74 130.708V137.512H1070.48V130.708H1107.74ZM1115.68 76.6V83.566H1070.48V76.6H1115.68ZM1125.56 156.79L1118.11 190H1086.36L1092.19 183.034C1097.59 183.034 1102.34 182.008 1106.44 179.956C1110.55 177.796 1114.06 174.772 1116.97 170.884C1119.89 166.888 1122.21 162.19 1123.94 156.79H1125.56ZM1107.74 137.188V152.74H1106.12V151.444C1106.12 147.448 1104.82 144.154 1102.23 141.562C1099.64 138.97 1096.35 137.62 1092.35 137.512V137.188H1107.74ZM1107.74 115.48V131.032H1092.35V130.708C1096.35 130.6 1099.64 129.25 1102.23 126.658C1104.82 123.958 1106.12 120.61 1106.12 116.614V115.48H1107.74ZM1115.68 83.08V102.034H1114.06V100.09C1114.06 95.122 1112.55 91.126 1109.52 88.102C1106.61 85.078 1102.61 83.512 1097.53 83.404V83.08H1115.68ZM1115.68 73.684V78.382L1095.91 76.6C1098.29 76.6 1100.77 76.438 1103.37 76.114C1106.07 75.79 1108.55 75.412 1110.82 74.98C1113.09 74.548 1114.71 74.116 1115.68 73.684ZM1047.15 178.174V190H1034.19V188.38C1034.19 188.38 1034.52 188.38 1035.16 188.38C1035.92 188.38 1036.3 188.38 1036.3 188.38C1039.11 188.38 1041.48 187.408 1043.43 185.464C1045.48 183.412 1046.56 180.982 1046.67 178.174H1047.15ZM1047.15 88.426H1046.67C1046.56 85.618 1045.48 83.242 1043.43 81.298C1041.48 79.246 1039.11 78.22 1036.3 78.22C1036.3 78.22 1035.92 78.22 1035.16 78.22C1034.52 78.22 1034.19 78.22 1034.19 78.22V76.6H1047.15V88.426Z" fill="#7B6C5B"/>
<path d="M275.958 76.6H295.398C304.686 76.6 312.192 77.95 317.916 80.65C323.748 83.35 328.068 87.076 330.876 91.828C333.792 96.472 335.358 101.764 335.574 107.704C335.79 113.212 334.872 118.234 332.82 122.77C330.768 127.306 327.96 131.086 324.396 134.11C320.832 137.134 316.728 139.348 312.084 140.752C307.548 142.048 302.796 142.372 297.828 141.724C292.968 140.968 288.216 139.078 283.572 136.054V134.434C283.572 134.434 284.22 134.434 285.516 134.434C286.92 134.434 288.648 134.218 290.7 133.786C292.86 133.354 295.074 132.544 297.342 131.356C299.718 130.168 301.932 128.332 303.984 125.848C306.036 123.364 307.602 120.07 308.682 115.966C309.114 114.562 309.384 112.996 309.492 111.268C309.708 109.432 309.762 107.758 309.654 106.246C309.546 99.334 307.656 93.826 303.984 89.722C300.42 85.51 295.344 83.404 288.756 83.404H277.578C277.578 83.404 277.416 82.864 277.092 81.784C276.876 80.596 276.606 79.462 276.282 78.382C276.066 77.194 275.958 76.6 275.958 76.6ZM278.064 76.6V190H253.764V76.6H278.064ZM254.25 178.174V190H241.29V188.38C241.398 188.38 241.722 188.38 242.262 188.38C242.91 188.38 243.288 188.38 243.396 188.38C246.204 188.38 248.58 187.408 250.524 185.464C252.576 183.412 253.656 180.982 253.764 178.174H254.25ZM254.25 88.426H253.764C253.764 85.618 252.738 83.242 250.686 81.298C248.634 79.246 246.204 78.22 243.396 78.22C243.288 78.22 242.964 78.22 242.424 78.22C241.884 78.22 241.56 78.22 241.452 78.22L241.29 76.6H254.25V88.426ZM277.578 178.174H278.064C278.172 180.982 279.198 183.412 281.142 185.464C283.194 187.408 285.624 188.38 288.432 188.38C288.54 188.38 288.864 188.38 289.404 188.38C290.052 188.38 290.43 188.38 290.538 188.38V190H277.578V178.174ZM381.954 76.6H402.852C407.712 76.6 412.464 77.14 417.108 78.22C421.752 79.3 425.856 81.028 429.42 83.404C433.092 85.78 436.008 88.912 438.168 92.8C440.328 96.688 441.408 101.494 441.408 107.218C441.408 111.754 440.436 116.29 438.492 120.826C436.656 125.254 433.794 129.088 429.906 132.328C426.018 135.46 420.996 137.35 414.84 137.998C418.296 139.078 421.428 141.022 424.236 143.83C427.152 146.638 429.528 149.446 431.364 152.254C431.472 152.47 432.066 153.442 433.146 155.17C434.334 156.898 435.738 159.058 437.358 161.65C439.086 164.134 440.868 166.672 442.704 169.264C444.54 171.856 446.214 174.124 447.726 176.068C450.102 178.984 452.262 181.36 454.206 183.196C456.15 184.924 458.202 186.22 460.362 187.084C462.522 187.84 465.006 188.272 467.814 188.38V190H451.938C446.106 190 440.814 189.514 436.062 188.542C431.31 187.462 427.098 185.68 423.426 183.196C419.754 180.712 416.568 177.364 413.868 173.152C413.004 171.856 412.032 170.236 410.952 168.292C409.98 166.24 408.954 164.08 407.874 161.812C406.794 159.544 405.714 157.384 404.634 155.332C403.662 153.172 402.798 151.228 402.042 149.5C401.286 147.772 400.746 146.422 400.422 145.45C399.018 141.994 397.344 139.402 395.4 137.674C393.564 135.946 391.566 134.92 389.406 134.596V132.976C389.73 132.976 390.378 132.976 391.35 132.976C392.322 132.976 393.348 132.976 394.428 132.976C397.344 132.976 400.152 132.382 402.852 131.194C405.66 130.006 408.144 128.062 410.304 125.362C412.464 122.662 413.976 118.936 414.84 114.184C415.056 113.212 415.218 112.078 415.326 110.782C415.542 109.486 415.596 108.028 415.488 106.408C415.164 98.632 413.22 92.962 409.656 89.398C406.092 85.726 401.664 83.836 396.372 83.728C394.86 83.62 393.186 83.62 391.35 83.728C389.622 83.728 388.002 83.728 386.49 83.728C385.086 83.728 384.114 83.728 383.574 83.728C383.574 83.62 383.412 83.026 383.088 81.946C382.872 80.758 382.602 79.57 382.278 78.382C382.062 77.194 381.954 76.6 381.954 76.6ZM384.06 76.6V190H359.76V76.6H384.06ZM360.246 178.174V190H347.286V188.38C347.394 188.38 347.718 188.38 348.258 188.38C348.906 188.38 349.284 188.38 349.392 188.38C352.2 188.38 354.576 187.408 356.52 185.464C358.572 183.412 359.652 180.982 359.76 178.174H360.246ZM360.246 88.426H359.76C359.652 85.618 358.572 83.242 356.52 81.298C354.576 79.246 352.2 78.22 349.392 78.22C349.284 78.22 348.906 78.22 348.258 78.22C347.718 78.22 347.394 78.22 347.286 78.22V76.6H360.246V88.426ZM383.574 178.174H384.06C384.06 180.982 385.086 183.412 387.138 185.464C389.19 187.408 391.62 188.38 394.428 188.38C394.644 188.38 395.022 188.38 395.562 188.38C396.102 188.38 396.372 188.38 396.372 188.38V190H383.574V178.174ZM502.701 76.6V190H478.401V76.6H502.701ZM478.887 178.174V190H465.927V188.38C465.927 188.38 466.251 188.38 466.899 188.38C467.655 188.38 468.033 188.38 468.033 188.38C470.841 188.38 473.217 187.408 475.161 185.464C477.213 183.412 478.293 180.982 478.401 178.174H478.887ZM478.887 88.426H478.401C478.293 85.618 477.213 83.242 475.161 81.298C473.217 79.246 470.841 78.22 468.033 78.22C468.033 78.22 467.655 78.22 466.899 78.22C466.251 78.22 465.927 78.22 465.927 78.22V76.6H478.887V88.426ZM502.215 178.174H502.701C502.809 180.982 503.835 183.412 505.779 185.464C507.831 187.408 510.261 188.38 513.069 188.38C513.069 188.38 513.393 188.38 514.041 188.38C514.689 188.38 515.067 188.38 515.175 188.38V190H502.215V178.174ZM502.215 88.426V76.6H515.175V78.22C515.067 78.22 514.689 78.22 514.041 78.22C513.393 78.22 513.069 78.22 513.069 78.22C510.261 78.22 507.831 79.246 505.779 81.298C503.835 83.242 502.809 85.618 502.701 88.426H502.215ZM648.131 74.332L649.427 91.99L601.313 175.42C601.313 175.42 600.773 176.392 599.693 178.336C598.613 180.172 597.533 182.44 596.453 185.14C595.481 187.84 594.995 190.54 594.995 193.24H593.375L587.057 179.146L648.131 74.332ZM538.295 178.174V190H520.313V188.38C520.421 188.38 520.907 188.38 521.771 188.38C522.527 188.38 522.905 188.38 522.905 188.38C525.821 188.38 528.413 187.516 530.681 185.788C532.949 183.952 534.299 181.414 534.731 178.174H538.295ZM545.423 180.766C545.423 180.874 545.423 180.982 545.423 181.09C545.423 181.198 545.423 181.36 545.423 181.576C545.423 183.304 546.017 184.924 547.205 186.436C548.501 187.84 550.013 188.542 551.741 188.542H554.171V190H544.289V180.766H545.423ZM548.177 74.332H549.635L555.305 90.532L544.451 190H533.111L548.177 74.332ZM549.635 74.332L602.609 161.326L593.375 193.24L545.423 112.726L549.635 74.332ZM649.589 74.332L664.979 190H638.897L630.797 115.48L648.131 74.332H649.589ZM659.957 178.174H663.359C663.899 181.414 665.303 183.952 667.571 185.788C669.839 187.516 672.377 188.38 675.185 188.38C675.185 188.38 675.617 188.38 676.481 188.38C677.345 188.38 677.777 188.38 677.777 188.38V190H659.957V178.174ZM637.925 180.766H639.059V190H629.177V188.542H631.607C633.443 188.542 634.955 187.84 636.143 186.436C637.331 184.924 637.925 183.304 637.925 181.576C637.925 181.36 637.925 181.198 637.925 181.09C637.925 180.982 637.925 180.874 637.925 180.766ZM719.756 76.6V190H695.456V76.6H719.756ZM695.942 178.174V190H682.982V188.38C682.982 188.38 683.306 188.38 683.954 188.38C684.71 188.38 685.088 188.38 685.088 188.38C687.896 188.38 690.272 187.408 692.216 185.464C694.268 183.412 695.348 180.982 695.456 178.174H695.942ZM695.942 88.426H695.456C695.348 85.618 694.268 83.242 692.216 81.298C690.272 79.246 687.896 78.22 685.088 78.22C685.088 78.22 684.71 78.22 683.954 78.22C683.306 78.22 682.982 78.22 682.982 78.22V76.6H695.942V88.426ZM719.27 178.174H719.756C719.864 180.982 720.89 183.412 722.834 185.464C724.886 187.408 727.316 188.38 730.124 188.38C730.124 188.38 730.448 188.38 731.096 188.38C731.744 188.38 732.122 188.38 732.23 188.38V190H719.27V178.174ZM719.27 88.426V76.6H732.23V78.22C732.122 78.22 731.744 78.22 731.096 78.22C730.448 78.22 730.124 78.22 730.124 78.22C727.316 78.22 724.886 79.246 722.834 81.298C720.89 83.242 719.864 85.618 719.756 88.426H719.27ZM805.084 77.086V190H780.784V77.086H805.084ZM844.774 76.438V83.242H741.094V76.438H844.774ZM844.774 82.756V101.872L843.154 101.71V99.928C843.154 94.852 841.642 90.856 838.618 87.94C835.702 84.916 831.706 83.35 826.63 83.242V82.756H844.774ZM844.774 73.522V78.22L825.01 76.438C827.386 76.438 829.87 76.276 832.462 75.952C835.162 75.628 837.646 75.25 839.914 74.818C842.182 74.386 843.802 73.954 844.774 73.522ZM781.27 178.174V190H768.31V188.38C768.31 188.38 768.634 188.38 769.282 188.38C770.038 188.38 770.416 188.38 770.416 188.38C773.224 188.38 775.6 187.408 777.544 185.464C779.596 183.412 780.676 180.982 780.784 178.174H781.27ZM804.598 178.174H805.084C805.192 180.982 806.218 183.412 808.162 185.464C810.214 187.408 812.644 188.38 815.452 188.38C815.452 188.38 815.776 188.38 816.424 188.38C817.18 188.38 817.558 188.38 817.558 188.38V190H804.598V178.174ZM759.076 82.756V83.242C754.108 83.35 750.112 84.916 747.088 87.94C744.172 90.856 742.714 94.852 742.714 99.928V101.71L741.094 101.872V82.756H759.076ZM741.094 73.522C742.174 73.954 743.794 74.386 745.954 74.818C748.222 75.25 750.706 75.628 753.406 75.952C756.106 76.276 758.59 76.438 760.858 76.438L741.094 78.22V73.522ZM890.457 76.6V190H866.157V76.6H890.457ZM866.643 178.174V190H853.683V188.38C853.683 188.38 854.007 188.38 854.655 188.38C855.411 188.38 855.789 188.38 855.789 188.38C858.597 188.38 860.973 187.408 862.917 185.464C864.969 183.412 866.049 180.982 866.157 178.174H866.643ZM866.643 88.426H866.157C866.049 85.618 864.969 83.242 862.917 81.298C860.973 79.246 858.597 78.22 855.789 78.22C855.789 78.22 855.411 78.22 854.655 78.22C854.007 78.22 853.683 78.22 853.683 78.22V76.6H866.643V88.426ZM889.971 178.174H890.457C890.565 180.982 891.591 183.412 893.535 185.464C895.587 187.408 898.017 188.38 900.825 188.38C900.825 188.38 901.149 188.38 901.797 188.38C902.445 188.38 902.823 188.38 902.931 188.38V190H889.971V178.174ZM889.971 88.426V76.6H902.931V78.22C902.823 78.22 902.445 78.22 901.797 78.22C901.149 78.22 900.825 78.22 900.825 78.22C898.017 78.22 895.587 79.246 893.535 81.298C891.591 83.242 890.565 85.618 890.457 88.426H889.971ZM969.143 193.24L915.521 77.572H944.519L979.187 161.974L969.143 193.24ZM969.143 193.24L968.657 173.476L1009.81 77.086H1021.47L978.539 172.018C978.323 172.666 977.783 173.908 976.919 175.744C976.163 177.472 975.299 179.47 974.327 181.738C973.355 184.006 972.491 186.22 971.735 188.38C971.087 190.432 970.709 192.052 970.601 193.24H969.143ZM1004.95 88.426C1006.35 85.186 1006.19 82.702 1004.46 80.974C1002.73 79.138 1000.84 78.22 998.789 78.22H997.331V76.6H1032V78.22C1032 78.22 1031.73 78.22 1031.19 78.22C1030.76 78.22 1030.54 78.22 1030.54 78.22C1028.17 78.22 1025.63 79.03 1022.93 80.65C1020.34 82.162 1018.18 84.754 1016.45 88.426H1004.95ZM949.055 88.426H920.543C918.815 84.754 916.601 82.162 913.901 80.65C911.309 79.03 908.771 78.22 906.287 78.22C906.287 78.22 906.071 78.22 905.639 78.22C905.207 78.22 904.991 78.22 904.991 78.22V76.6H956.507V78.22H955.049C952.997 78.22 951.161 79.138 949.541 80.974C948.029 82.702 947.867 85.186 949.055 88.426ZM1070.97 76.6V190H1046.67V76.6H1070.97ZM1113.73 183.034L1117.62 190H1070.48V183.034H1113.73ZM1107.74 130.708V137.512H1070.48V130.708H1107.74ZM1115.68 76.6V83.566H1070.48V76.6H1115.68ZM1125.56 156.79L1118.11 190H1086.36L1092.19 183.034C1097.59 183.034 1102.34 182.008 1106.44 179.956C1110.55 177.796 1114.06 174.772 1116.97 170.884C1119.89 166.888 1122.21 162.19 1123.94 156.79H1125.56ZM1107.74 137.188V152.74H1106.12V151.444C1106.12 147.448 1104.82 144.154 1102.23 141.562C1099.64 138.97 1096.35 137.62 1092.35 137.512V137.188H1107.74ZM1107.74 115.48V131.032H1092.35V130.708C1096.35 130.6 1099.64 129.25 1102.23 126.658C1104.82 123.958 1106.12 120.61 1106.12 116.614V115.48H1107.74ZM1115.68 83.08V102.034H1114.06V100.09C1114.06 95.122 1112.55 91.126 1109.52 88.102C1106.61 85.078 1102.61 83.512 1097.53 83.404V83.08H1115.68ZM1115.68 73.684V78.382L1095.91 76.6C1098.29 76.6 1100.77 76.438 1103.37 76.114C1106.07 75.79 1108.55 75.412 1110.82 74.98C1113.09 74.548 1114.71 74.116 1115.68 73.684ZM1047.15 178.174V190H1034.19V188.38C1034.19 188.38 1034.52 188.38 1035.16 188.38C1035.92 188.38 1036.3 188.38 1036.3 188.38C1039.11 188.38 1041.48 187.408 1043.43 185.464C1045.48 183.412 1046.56 180.982 1046.67 178.174H1047.15ZM1047.15 88.426H1046.67C1046.56 85.618 1045.48 83.242 1043.43 81.298C1041.48 79.246 1039.11 78.22 1036.3 78.22C1036.3 78.22 1035.92 78.22 1035.16 78.22C1034.52 78.22 1034.19 78.22 1034.19 78.22V76.6H1047.15V88.426Z" fill="black" fill-opacity="0.2"/>
</svg>
